<svg xmlns="http://www.w3.org/2000/svg" width="512" height="512" viewBox="0 0 512 512"><defs><linearGradient id="g" x1="0" x2="1" y1="0" y2="1"><stop offset="0" stop-color="#ffd59a"/><stop offset=".55" stop-color="#9b6a42"/><stop offset="1" stop-color="#7c83ff"/></linearGradient></defs><rect width="512" height="512" rx="120" fill="#15171d"/><path d="M122 127c0-22 18-40 40-40h220c22 0 40 18 40 40v258c0 22-18 40-40 40H162c-22 0-40-18-40-40V127Z" fill="url(#g)"/><path d="M169 139h178c14 0 26 12 26 26v208H169V139Z" fill="#fff3df" opacity=".92"/><path d="M201 196h136M201 235h136M201 274h104" stroke="#282018" stroke-width="22" stroke-linecap="round" opacity=".72"/><path d="M143 117c20 20 42 30 66 30h157" stroke="#fff7ea" stroke-width="18" stroke-linecap="round" opacity=".82"/></svg>
